<svg width="1200" height="760" viewBox="0 0 1200 760" fill="none" xmlns="http://www.w3.org/2000/svg">
  <rect width="1200" height="760" fill="#F6F1E7"/>
  <rect x="96" y="88" width="1008" height="584" rx="24" fill="#FBFAF7" stroke="#D8D0C2"/>
  <rect x="144" y="136" width="220" height="500" rx="18" fill="#E7EFEA"/>
  <rect x="408" y="154" width="560" height="76" rx="18" fill="#F1EDE4" stroke="#D8D0C2"/>
  <rect x="440" y="182" width="360" height="20" rx="6" fill="#53645F"/>
  <rect x="540" y="278" width="520" height="112" rx="20" fill="#17665A"/>
  <rect x="572" y="314" width="380" height="18" rx="6" fill="#FBFAF7"/>
  <rect x="572" y="348" width="300" height="18" rx="6" fill="#A9C8BD"/>
  <rect x="408" y="460" width="652" height="88" rx="18" fill="#FFFFFF" stroke="#D8D0C2"/>
  <rect x="438" y="494" width="430" height="20" rx="6" fill="#A9C8BD"/>
  <rect x="176" y="178" width="120" height="18" rx="6" fill="#17665A"/>
  <rect x="176" y="226" width="132" height="18" rx="6" fill="#53645F"/>
  <text x="176" y="610" fill="#53645F" font-family="Arial, 'PingFang SC', sans-serif" font-size="30" font-weight="700">截图占位：Codex 客户端首次测试对话</text>
</svg>
